<svg xmlns="http://www.w3.org/2000/svg" viewBox="0 0 1600 1000" role="img" aria-labelledby="title desc">
  <title id="title">Luxury office interior</title>
  <desc id="desc">Illustrated interior space with desk, pendant lights, and seating area.</desc>
  <defs>
    <linearGradient id="bg2" x1="0%" y1="0%" x2="100%" y2="100%">
      <stop offset="0%" stop-color="#f5eee4"/>
      <stop offset="100%" stop-color="#dcc6ae"/>
    </linearGradient>
  </defs>
  <rect width="1600" height="1000" fill="url(#bg2)"/>
  <rect x="0" y="760" width="1600" height="240" fill="#8b765d"/>
  <rect x="120" y="160" width="1360" height="500" rx="28" fill="#f9f7f3"/>
  <rect x="200" y="250" width="520" height="260" rx="24" fill="#d3b08f"/>
  <rect x="810" y="250" width="520" height="260" rx="24" fill="#d8e4e8"/>
  <rect x="540" y="560" width="530" height="70" rx="18" fill="#6f5f4f"/>
  <rect x="625" y="460" width="350" height="130" rx="18" fill="#efe4d4"/>
  <circle cx="580" cy="210" r="28" fill="#c27c3b"/>
  <circle cx="800" cy="210" r="28" fill="#c27c3b"/>
  <circle cx="1020" cy="210" r="28" fill="#c27c3b"/>
  <rect x="260" y="560" width="160" height="110" rx="18" fill="#9a7f68"/>
  <rect x="1180" y="560" width="160" height="110" rx="18" fill="#9a7f68"/>
  <rect x="230" y="300" width="460" height="24" rx="12" fill="#fff7ef" opacity="0.8"/>
  <rect x="840" y="300" width="460" height="24" rx="12" fill="#ffffff" opacity="0.85"/>
</svg>
