<svg xmlns="http://www.w3.org/2000/svg" viewBox="0 0 1600 1000" role="img" aria-labelledby="title desc">
  <title id="title">Commercial construction site</title>
  <desc id="desc">Illustrated commercial construction site with crane and building frames.</desc>
  <defs>
    <linearGradient id="sky3" x1="0%" y1="0%" x2="100%" y2="100%">
      <stop offset="0%" stop-color="#cddff2"/>
      <stop offset="100%" stop-color="#f3efe8"/>
    </linearGradient>
  </defs>
  <rect width="1600" height="1000" fill="url(#sky3)"/>
  <rect y="760" width="1600" height="240" fill="#b78c59"/>
  <rect x="200" y="420" width="360" height="340" fill="#d8d1c7"/>
  <rect x="620" y="320" width="330" height="440" fill="#e7ded2"/>
  <rect x="1010" y="250" width="360" height="510" fill="#d9d5cf"/>
  <g fill="#7c8792">
    <rect x="260" y="460" width="36" height="300"/>
    <rect x="370" y="460" width="36" height="300"/>
    <rect x="480" y="460" width="36" height="300"/>
    <rect x="690" y="360" width="36" height="400"/>
    <rect x="790" y="360" width="36" height="400"/>
    <rect x="1080" y="290" width="36" height="470"/>
    <rect x="1180" y="290" width="36" height="470"/>
    <rect x="1280" y="290" width="36" height="470"/>
  </g>
  <rect x="1110" y="80" width="22" height="600" fill="#5d6168"/>
  <rect x="930" y="120" width="450" height="22" fill="#5d6168"/>
  <path d="M1330 142L1420 220H1240Z" fill="#df7f2d"/>
  <rect x="1302" y="142" width="18" height="220" fill="#5d6168"/>
  <rect x="230" y="790" width="1140" height="22" rx="11" fill="#8b5e34" opacity="0.6"/>
</svg>
